HIERARCHY
ROOT Hips
{
	OFFSET 0.000000 0.000000 0.000000
	CHANNELS 6 Xposition Yposition Zposition Xrotation Yrotation Zrotation
	JOINT LeftUpLeg_virtual
	{
		OFFSET 0.000000 0.000000 0.000000
		CHANNELS 3 Xrotation Yrotation Zrotation
		JOINT LeftUpLeg
		{
			OFFSET 11.394100 -6.187798 -0.413800
			CHANNELS 3 Xrotation Yrotation Zrotation
			JOINT LeftLeg
			{
				OFFSET 0.430247 -32.302673 3.732800
				CHANNELS 3 Xrotation Yrotation Zrotation
				JOINT LeftFoot
				{
					OFFSET -0.430247 -48.264931 -6.423300
					CHANNELS 3 Xrotation Yrotation Zrotation
					JOINT LeftToeBase
					{
						OFFSET 4.230900 -16.068199 23.438400
						CHANNELS 3 Xrotation Yrotation Zrotation
						JOINT LeftToe_End
						{
							OFFSET 4.510700 0.695400 19.974600
							CHANNELS 3 Xrotation Yrotation Zrotation
							End Site
							{
								OFFSET 0 0 0
							}
						}
					}
				}
			}
		}
	}
	JOINT RightUpLeg_virtual
	{
		OFFSET 0.000000 0.000000 0.000000
		CHANNELS 3 Xrotation Yrotation Zrotation
		JOINT RightUpLeg
		{
			OFFSET -11.333700 -6.187798 -0.413800
			CHANNELS 3 Xrotation Yrotation Zrotation
			JOINT RightLeg
			{
				OFFSET -0.430392 -32.302628 3.733000
				CHANNELS 3 Xrotation Yrotation Zrotation
				JOINT RightFoot
				{
					OFFSET 0.430392 -48.264973 -6.423500
					CHANNELS 3 Xrotation Yrotation Zrotation
					JOINT RightToeBase
					{
						OFFSET -4.230900 -16.068199 23.438400
						CHANNELS 3 Xrotation Yrotation Zrotation
						JOINT RightToe_End
						{
							OFFSET -4.510700 0.695400 19.974600
							CHANNELS 3 Xrotation Yrotation Zrotation
							End Site
							{
								OFFSET 0 0 0
							}
						}
					}
				}
			}
		}
	}
	JOINT Spine_virtual
	{
		OFFSET 0.000000 0.000000 0.000000
		CHANNELS 3 Xrotation Yrotation Zrotation
		JOINT Spine
		{
			OFFSET -0.002400 12.777504 0.315300
			CHANNELS 3 Xrotation Yrotation Zrotation
			JOINT Spine1
			{
				OFFSET -0.002067 5.816869 0.032633
				CHANNELS 3 Xrotation Yrotation Zrotation
				JOINT Spine1_split
				{
					OFFSET -0.002067 5.816869 0.032633
					CHANNELS 3 Xrotation Yrotation Zrotation
					JOINT Spine2
					{
						OFFSET -0.002067 5.816869 0.032633
						CHANNELS 3 Xrotation Yrotation Zrotation
						JOINT Neck_virtual
						{
							OFFSET 0.000000 0.000000 0.000000
							CHANNELS 3 Xrotation Yrotation Zrotation
							JOINT Neck
							{
								OFFSET -0.003700 21.199493 -0.826900
								CHANNELS 3 Xrotation Yrotation Zrotation
								JOINT Head
								{
									OFFSET 0.000000 20.442200 4.834800
									CHANNELS 3 Xrotation Yrotation Zrotation
									JOINT HeadTop_End
									{
										OFFSET 0.000000 34.668396 4.968400
										CHANNELS 3 Xrotation Yrotation Zrotation
										End Site
										{
											OFFSET 0 0 0
										}
									}
								}
							}
						}
						JOINT LeftShoulder_virtual
						{
							OFFSET 0.000000 0.000000 0.000000
							CHANNELS 3 Xrotation Yrotation Zrotation
							JOINT LeftShoulder
							{
								OFFSET 3.288150 8.794197 -1.372250
								CHANNELS 3 Xrotation Yrotation Zrotation
								JOINT LeftShoulder_split
								{
									OFFSET 3.288150 8.794197 -1.372250
									CHANNELS 3 Xrotation Yrotation Zrotation
									JOINT LeftArm
									{
										OFFSET 11.953299 -2.279007 -0.146200
										CHANNELS 3 Xrotation Yrotation Zrotation
										JOINT LeftForeArm
										{
											OFFSET 18.448900 0.000000 0.000000
											CHANNELS 3 Xrotation Yrotation Zrotation
											JOINT LeftHand
											{
												OFFSET 29.527798 0.000000 0.000000
												CHANNELS 3 Xrotation Yrotation Zrotation
												End Site
												{
													OFFSET 0 0 0
												}
											}
										}
									}
								}
							}
						}
						JOINT RightShoulder_virtual
						{
							OFFSET 0.000000 0.000000 0.000000
							CHANNELS 3 Xrotation Yrotation Zrotation
							JOINT RightShoulder
							{
								OFFSET -3.249400 8.794197 -1.372250
								CHANNELS 3 Xrotation Yrotation Zrotation
								JOINT RightShoulder_split
								{
									OFFSET -3.249400 8.794197 -1.372250
									CHANNELS 3 Xrotation Yrotation Zrotation
									JOINT RightArm
									{
										OFFSET -11.953299 -2.279007 -0.146200
										CHANNELS 3 Xrotation Yrotation Zrotation
										JOINT RightForeArm
										{
											OFFSET -18.448900 0.000000 0.000000
											CHANNELS 3 Xrotation Yrotation Zrotation
											JOINT RightHand
											{
												OFFSET -29.527802 0.000000 0.000000
												CHANNELS 3 Xrotation Yrotation Zrotation
												End Site
												{
													OFFSET 0 0 0
												}
											}
										}
									}
								}
							}
						}
					}
				}
			}
		}
	}
}
MOTION
Frames: 7
Frame Time: 0.03333333
8.451805 89.160103 -11.590965 0.000000 0.000000 0.000000 43.258108 -79.958702 49.653662 -5.200186 31.334039 10.255608 26.243831 -10.268622 0.270342 -18.574880 21.436957 -18.120852 -3.027141 -5.439941 -6.824939 0.000000 0.000000 0.000000 47.021341 -79.464347 52.498791 -57.243368 22.352410 -3.491810 42.884589 -3.029698 0.211355 -0.850055 10.244564 24.893825 6.317696 8.572786 -24.876603 0.000000 0.000000 0.000000 33.348679 -75.158842 39.078391 25.357566 -8.157394 0.729422 18.935134 -0.630145 0.847966 0.112421 0.712496 -0.146170 0.000000 0.000000 0.000000 18.255545 1.235912 0.426629 -2.089877 -0.433639 6.386714 -23.229494 -45.217789 -0.508530 0.000000 0.000000 0.000000 20.446366 -1.666546 0.880617 -0.181985 4.901911 16.375148 -1.934134 -4.457253 0.028213 7.266514 -0.995792 -67.462953 44.649305 -66.806907 38.024216 0.000000 0.000000 0.000000 20.563676 -0.279560 1.822846 7.341995 12.926901 6.033778 5.286685 0.047691 9.039897 -52.283951 32.759479 62.153752 -135.129241 73.775824 125.701149 0.000000 0.000000 0.000000 
8.658463 88.981453 -11.764763 0.000000 0.000000 0.000000 36.975154 -79.177418 43.255308 -6.846767 31.185510 11.649735 26.901677 -11.648897 0.602471 -17.944725 18.350739 -17.516575 -4.393650 -5.396155 -7.925082 0.000000 0.000000 0.000000 39.523337 -78.715102 45.030570 -56.251300 21.960178 -5.663343 45.481676 -3.187897 0.091445 -1.421050 7.868861 26.009760 6.389934 8.202075 -23.812853 0.000000 0.000000 0.000000 30.578170 -74.585734 35.986050 24.175893 -7.101175 1.523081 18.676751 -1.742455 0.596904 0.067769 0.663722 -0.123390 0.000000 0.000000 0.000000 18.368894 -0.002050 -0.019867 -0.200853 0.047184 4.666523 -21.894327 -37.602869 1.171242 0.000000 0.000000 0.000000 20.117262 -2.936268 0.717572 -0.439356 5.623153 16.052191 -0.448085 -5.990779 0.836222 1.363948 5.738902 -63.455374 48.669886 -71.263079 41.096200 0.000000 0.000000 0.000000 20.060785 -1.720071 1.267487 7.512440 13.368938 6.150319 3.751502 0.526338 8.090732 -46.416480 28.005946 57.393841 -146.715482 74.818596 138.414945 0.000000 0.000000 0.000000 
8.819838 89.105476 -12.238182 0.000000 0.000000 0.000000 29.146726 -77.697814 35.148908 -9.376557 30.115738 13.598734 27.625930 -13.359358 1.199676 -15.921028 14.124687 -17.810234 -6.337395 -5.261229 -8.566170 0.000000 0.000000 0.000000 31.777988 -77.375470 37.103900 -54.629045 21.234017 -8.192068 47.307557 -2.805455 -0.206998 -1.681831 5.479260 28.380003 7.155196 8.130560 -23.612054 0.000000 0.000000 0.000000 26.916628 -73.366361 31.725669 22.390460 -5.371797 3.094817 18.265340 -3.025550 0.141093 -0.007293 0.581193 -0.145344 0.000000 0.000000 0.000000 18.308684 -1.491164 -0.532951 1.916446 1.298373 2.108596 -21.271478 -28.609526 1.256517 0.000000 0.000000 0.000000 19.671160 -4.379073 0.287205 -0.529068 6.104697 15.378337 1.412369 -6.508236 1.402699 -4.535604 8.621252 -59.536901 61.597446 -77.011967 53.189985 0.000000 0.000000 0.000000 19.585571 -3.334235 0.477848 7.733166 14.247146 6.054564 1.097422 0.330238 7.585022 -41.861137 24.835302 54.918635 -156.726764 75.244000 149.614392 0.000000 0.000000 0.000000 
8.930806 89.457825 -12.668938 0.000000 0.000000 0.000000 22.119960 -75.440054 27.691713 -12.565386 28.275390 15.723073 28.380191 -14.608656 1.877787 -13.052770 9.397546 -18.200021 -8.353581 -5.120635 -8.552776 0.000000 0.000000 0.000000 25.462242 -75.478850 30.413169 -51.858621 19.934397 -10.641249 47.837224 -2.163298 -0.736628 -2.455992 2.812442 31.194580 8.460869 8.356389 -23.850483 0.000000 0.000000 0.000000 23.364016 -71.690560 27.361045 20.051970 -3.111589 4.965083 17.664674 -4.199748 -0.538274 -0.144608 0.393510 -0.189254 0.000000 0.000000 0.000000 17.978678 -2.932602 -1.172224 4.363419 2.953460 -0.660597 -20.761646 -19.127984 0.585500 0.000000 0.000000 0.000000 19.115312 -5.709514 -0.447062 -0.373489 6.061121 14.177570 2.464282 -5.950424 1.407336 -8.970265 7.211031 -56.499287 94.896893 -81.153466 85.832979 0.000000 0.000000 0.000000 19.211007 -4.836785 -0.493677 7.828849 15.286322 5.699400 -2.189523 -0.650026 7.834283 -38.298302 22.991414 53.841630 -162.522111 75.034532 156.518238 0.000000 0.000000 0.000000 
8.925527 89.867561 -12.816521 0.000000 0.000000 0.000000 16.895153 -72.459687 21.935456 -16.166996 25.822375 17.586344 29.337831 -14.855431 2.566847 -9.996856 5.094549 -18.083582 -9.384974 -5.014355 -8.102439 0.000000 0.000000 0.000000 20.828851 -73.100455 25.316016 -48.033616 17.824516 -12.750132 47.282883 -1.617594 -1.420372 -3.731375 -0.438173 33.624099 9.469868 8.937712 -24.085550 0.000000 0.000000 0.000000 19.646097 -69.502892 22.960273 17.347185 -0.570576 6.580593 16.921732 -4.967733 -1.327080 -0.192733 0.210437 -0.135686 0.000000 0.000000 0.000000 17.266717 -3.969876 -1.888381 6.951264 4.854585 -2.890458 -20.144012 -9.867946 -0.265246 0.000000 0.000000 0.000000 18.364243 -6.640339 -1.396612 0.025887 5.285565 12.419698 2.521308 -5.090650 0.833176 -10.954580 3.090515 -54.765755 136.298488 -80.640000 126.936293 0.000000 0.000000 0.000000 18.910844 -5.862253 -1.472322 7.711505 15.966523 4.838223 -5.561377 -1.665509 9.307728 -35.539458 22.401832 53.035541 -163.255496 74.071175 158.210226 0.000000 0.000000 0.000000 
8.741865 90.119247 -12.694916 0.000000 0.000000 0.000000 13.563036 -68.959079 18.038982 -19.735400 23.137104 18.773735 30.349341 -13.853510 3.144075 -7.741295 1.959224 -16.968528 -8.854915 -4.941959 -7.487598 0.000000 0.000000 0.000000 17.360963 -70.494703 21.508942 -43.658180 14.896682 -14.443748 46.386151 -1.188637 -2.213981 -5.340426 -4.178860 35.414316 9.762750 9.820826 -24.086835 0.000000 0.000000 0.000000 16.090363 -66.746145 19.023742 14.494968 2.077220 7.469818 16.015178 -5.171211 -1.996933 -0.163384 -0.109717 -0.064419 0.000000 0.000000 0.000000 16.173984 -4.372980 -2.449909 9.231715 6.555715 -4.026591 -19.282080 -2.049364 -0.937017 0.000000 0.000000 0.000000 17.263117 -6.945426 -2.356769 0.559061 3.913842 10.210860 1.564365 -4.127410 -0.144686 -10.881376 -2.102342 -53.957822 156.756967 -78.109832 147.484589 0.000000 0.000000 0.000000 18.437368 -6.190542 -2.233843 7.332205 16.049927 3.400828 -8.197340 -2.427842 11.244291 -33.900455 22.826695 52.360753 -159.830292 72.567318 155.502671 0.000000 0.000000 0.000000 
8.380561 90.096825 -12.234402 0.000000 0.000000 0.000000 11.777313 -65.449584 15.807510 -23.195112 20.501786 19.353864 31.513120 -12.211600 3.577235 -6.340572 0.027682 -15.516928 -7.416276 -4.801519 -6.825642 0.000000 0.000000 0.000000 14.621828 -67.510812 18.639516 -39.424610 11.460790 -15.797331 45.747306 -0.602815 -3.096966 -7.233434 -7.894803 36.753555 9.409893 10.865216 -23.899370 0.000000 0.000000 0.000000 12.875424 -63.524045 15.771250 11.715884 4.642568 7.350429 14.984609 -4.851147 -2.315175 -0.025831 -0.461251 0.104973 0.000000 0.000000 0.000000 14.749150 -4.094640 -2.654319 10.624165 7.753819 -3.718876 -18.123151 3.283537 -1.210673 0.000000 0.000000 0.000000 15.785221 -6.629084 -3.072420 1.040208 2.274295 7.666900 -0.238082 -3.228075 -1.316754 -9.720175 -6.994460 -53.501466 166.181699 -75.590612 157.523560 0.000000 0.000000 0.000000 17.570624 -5.799711 -2.513553 6.625471 15.285869 1.367648 -9.367976 -2.029763 12.810770 -33.524778 23.912752 52.019045 -154.368532 70.750596 150.436979 0.000000 0.000000 0.000000 
